<svg xmlns="http://www.w3.org/2000/svg" width="500" height="500" viewBox="0 0 500 500" preserveAspectRatio="xMidYMid meet" style="width: 100%; height: 100%;"><defs><clipPath id="animationMask_NNxfbYL9Bs"><rect width="500" height="500" x="0" y="0"></rect></clipPath></defs><g clip-path="url(#animationMask_NNxfbYL9Bs)"><g transform="matrix(1,0,0,1,-0.25,-0.25)" opacity="1" style="user-select: none;"><g opacity="1" transform="matrix(1,0,0,1,250.25,250.25)"><path fill="rgb(255, 255, 255)" fill-opacity="1" d="M0 0 M-250,250 C-250,250 250,250 250,250 C250,250 250,-250 250,-250 C250,-250 -250,-250 -250,-250 C-250,-250 -250,250 -250,250z"></path></g></g><g style="user-select: none; display: none;" transform="matrix(1,0,0,1,467.581,138.76)" opacity="1"><g opacity="1" transform="matrix(1,0,0,1,3.334,23.37)"><path style="display: none;" fill="rgb(29,18,21)" fill-opacity="1" d="M0 0 M-198.242,88.992 C-198.171,89.00500000000001 -198.007,89.496 -198.007,89.496 C-198.007,89.496 -192.727,89.459 -192.727,89.459 C-192.727,89.459 -192.779,88.859 -192.779,88.859 C-192.779,88.859 -192.935,87.131 -192.935,87.131 C-192.935,87.131 -194.442,87.134 -195.84,87.137 C-195.84,87.137 -198.458,87.142 -198.458,87.142 C-198.458,87.142 -198.377,87.4 -198.348,87.474 C-198.348,87.474 -198.242,88.992 -198.242,88.992z"></path></g></g><g style="user-select: none; display: none;" transform="matrix(1,0,0,1,518.383,157.996)" opacity="1"><g opacity="1" transform="matrix(1,0,0,1,18.577,47.1)"><path style="display: none;" fill="rgb(29,18,21)" fill-opacity="1" d="M0 0 M-253.309,44.449 C-253.26,44.644 -253.202,45.934 -253.202,45.934 C-253.202,45.934 -247.98,45.934 -247.98,45.934 C-247.98,45.934 -247.927,44.9 -247.927,44.9 C-247.927,44.9 -247.792,44.884 -247.792,44.884 C-247.792,44.884 -249.29399999999998,44.754000000000005 -250.688,44.63 C-250.688,44.63 -253.297,44.4 -253.297,44.4 C-253.297,44.4 -253.273,44.341 -253.29,44.667 C-253.29,44.667 -253.309,44.449 -253.309,44.449z"></path></g></g><g style="user-select: none; display: none;" transform="matrix(1,0,0,1,527.3639999999999,186.98)" opacity="1"><g opacity="1" transform="matrix(1,0,0,1,13.215,15.581)"><path style="display: none;" fill="rgb(239,211,146)" fill-opacity="1" d="M0 0 M-276.832001488685,-35.878307115054774 C-277.8111796136702,-34.78006017292114 -296.5411290404974,-34.232463788097675 -297.6503817766204,-34.941002031315975 C-298.7595686850408,-35.649540274534274 -299.17928316113625,-56.98841802924162 -298.5045135496908,-57.846582690949305 C-297.8297439382453,-58.70474735265699 -278.6206299505661,-59.402811305060816 -277.6861332617553,-58.782953602390734 C-276.75157074524185,-58.16309589972065 -275.8528233636998,-36.97655405718841 -276.832001488685,-35.878307115054774z"></path></g></g><g style="user-select: none; display: none;" transform="matrix(1,0,0,1,531.502,166.506)" opacity="1"><g opacity="1" transform="matrix(1,0,0,1,0,0)"></g><g opacity="1" transform="matrix(1,0,0,1,13.215,15.581)"><path style="display: none;" fill="rgb(223,244,244)" fill-opacity="1" d="M0 0 M-278.9762685837117,-45.76863706514757 C-280.25871001950736,-45.2096166096872 -296.48659464873253,-55.724216526587426 -297.1608929083814,-56.8056550569838 C-297.83519116803035,-57.88709358738017 -285.61238022069824,-76.32122988900917 -284.73336956196425,-76.85869855392724 C-283.85435890323026,-77.39616721884532 -267.12862626720573,-66.72382383909358 -266.5486794095919,-65.82261473438841 C-265.9687325519781,-64.92140562968322 -277.693827147916,-46.32772334831057 -278.9762685837117,-45.76863706514757z"></path></g></g><g style="user-select: none; display: none;" transform="matrix(1,0,0,1,214.773,228.556)" opacity="1"><g opacity="1" transform="matrix(1,0,0,1,24.946,30.54)"><path style="display: none;" fill="rgb(156,202,20)" fill-opacity="1" d="M0 0 M7.781,-5.531 C7.781,-5.531 7.754,-5.547 7.744,-5.572 C7.734,-5.597 7.737,-5.619 7.738,-5.635 C7.739000000000001,-5.651 7.748,-5.667 7.75,-5.67 C7.752,-5.673 7.769,-5.696 7.783,-5.705 C7.797000000000001,-5.714 7.82,-5.721 7.831,-5.719 C7.8420000000000005,-5.7170000000000005 7.864,-5.72 7.872,-5.716 C7.88,-5.712000000000001 7.8870000000000005,-5.708 7.891,-5.706 C7.891,-5.706 7.85,-5.6419999999999995 7.846,-5.635 C7.8420000000000005,-5.628 7.779,-5.529 7.781,-5.531z"></path></g><g opacity="1" transform="matrix(1,0,0,1,25.24,30.375)"><path style="display: none;" fill="rgb(238,241,189)" fill-opacity="1" d="M0 0 M7.6783251697064525,-2.521717516170437 C7.6783251697064525,-2.521717516170437 6.448133262015357,-5.25886747048002 4.639044105913015,-7.762374942340859 C-0.24804437607169305,-14.513979115776582 0.9049191559551772,-12.503150666138481 -0.7905837783952556,-14.518651759449032 C-2.5449910138248555,-16.604039311667066 -3.6965418797698106,-17.666417915421217 -4.470113722405523,-18.647484418061122 C-6.90598490905491,-21.731134955831827 -8.33336395085762,-22.429154146238773 -7.136535210394375,-23.106722580575067 C-6.086468033636841,-23.701424020191165 -6.340230709508736,-24.518164442937913 -3.160807363435203,-23.108616146906538 C-1.9322129768491934,-22.56466318535915 -0.5432099518422557,-21.18280178555948 0.2773852731295925,-20.229556861202763 C0.9562124463332999,-19.442044304270823 1.4490623277555095,-17.881556861202764 2.6990623277555095,-17.264556861202763 C2.6990623277555095,-17.264556861202763 11.693,-5.231 10.318,-3.033 C8.943,-0.8340000000000001 7.038325169706452,-2.021717516170437 7.6783251697064525,-2.521717516170437z"></path></g><g opacity="1" transform="matrix(1,0,0,1,37.597,18.475)"><path style="display: none;" fill="rgb(170,200,56)" fill-opacity="1" d="M0 0 M-6.510256999958652,10.275707399985851 C-6.510256999958652,10.275707399985851 -6.433645599963827,10.17021159999392 -6.381704599967579,10.145021399995986 C-6.329763599971331,10.119831199998051 -6.199311999980506,10.023315000005608 -6.188614399981249,10.017969600006065 C-6.1779167999819915,10.012624200006522 -6.129418599985449,9.982081800008872 -6.11826799998623,9.976827000009322 C-6.107117399987011,9.97157220000977 -6.086091399988637,9.974021800009647 -6.097970199987879,10.006017200007255 C-6.10984899998712,10.038012600004866 -6.162437799983654,10.15085379999634 -6.174954199982927,10.194724599993108 C-6.187470599982199,10.238595399989874 -6.237341399978966,10.351164799981373 -6.262910999977295,10.40309899997745 C-6.287574599975702,10.453039999973697 -6.283232599976243,10.529996799968067 -6.372873399969529,10.490008199970628 C-6.462514199962814,10.450019599973189 -6.503203799959596,10.387199799977699 -6.508549199959139,10.372968799978743 C-6.513894599958683,10.358737799979785 -6.544342999956254,10.308061799983344 -6.510256999958652,10.275707399985851zM0 0 M-6.337540599974851,9.814212400021244 C-6.337540599974851,9.814212400021244 -6.244852199980373,9.813685800021714 -6.320406999976058,9.856207800018852 C-6.395961799971742,9.89872980001599 -6.516689799964934,9.979153200010659 -6.535645599963828,9.983139600010318 C-6.5546013999627215,9.987126000009978 -6.691110799954993,10.087679600003357 -6.706804999954166,10.10908160000204 C-6.7224991999533374,10.130483600000726 -6.815835399948101,10.203111999995977 -6.832703999947087,10.19839399999621 C-6.8495725999460735,10.19367599999644 -6.910140999942098,10.11657420000072 -6.928539599940698,10.049458800004656 C-6.946938199939297,9.982343400008594 -6.953722999938462,9.880853200014528 -6.949367399938663,9.865981200015456 C-6.945011799938864,9.851109200016385 -6.948269999938501,9.813197600018595 -6.862836399943575,9.81430180001893 C-6.77740279994865,9.815406000019262 -6.564003399961406,9.820067400019887 -6.524370399963765,9.818715200020176 C-6.484737399966125,9.816453600020452 -6.351325399974016,9.813574800021213 -6.337540599974851,9.814212400021244zM0 0 M-7.368274799909043,9.195696600081142 C-7.368274799909043,9.195696600081142 -7.449366399904509,9.119753400087113 -7.388315599910063,8.985985800095206 C-7.327264799915616,8.852218200103296 -7.205377199925257,8.713074600111078 -7.145285599929791,8.661727000113755 C-7.085103399934331,8.610379400116432 -6.972255399942686,8.531354600120363 -6.91544799994523,8.634693000112904 C-6.858640599947775,8.738031400105447 -6.692148199955929,8.986485000087221 -6.659843599957406,9.043684200083103 C-6.627538999958884,9.10088340007899 -6.418933399968755,9.443974400053966 -6.395071599969938,9.475698000051597 C-6.371209799971123,9.50742160004923 -6.349330999971881,9.571697800044767 -6.41453359996785,9.547336600047103 C-6.47973619996382,9.52297540004944 -6.857079799940566,9.380975800063101 -6.888639199938639,9.366392600064433 C-6.920198599936714,9.351809400065761 -7.231611399917467,9.244506200076374 -7.265435799915348,9.235090600077351 C-7.299260199913229,9.225675000078326 -7.355845599909676,9.21038060008006 -7.368274799909043,9.195696600081142zM0 0 M-6.184754199998399,9.54299600005678 C-6.184754199998399,9.54299600005678 -6.088146200003659,9.627845200050732 -6.101334200003814,9.510231600058129 C-6.114522200003968,9.392618000065523 -6.228647800000286,8.980940400091793 -6.225849400000782,8.938589400094385 C-6.223051000001277,8.896238400096976 -6.279326200001339,8.465953800123982 -6.279430400001671,8.422153200126697 C-6.279534600002004,8.37835260012941 -6.307685200001222,8.266547600136569 -6.332452999999961,8.236629200138609 C-6.3572207999987,8.206710800140652 -6.422886599994887,8.168192200143599 -6.487716599990632,8.2007686001421 C-6.552546599986377,8.2333450001406 -6.837986599967811,8.345976800135933 -6.886212999964377,8.404575800132722 C-6.934439399960942,8.463174800129513 -7.02356039995487,8.529948200126114 -7.006570599955125,8.629877800119804 C-6.989580799955379,8.729807400113492 -6.865121199962078,8.85056140010506 -6.8055187999652045,8.915471800100542 C-6.74591639996833,8.980382200096026 -6.210786999996945,9.52278200005825 -6.184754199998399,9.54299600005678zM0 0 M-6.279371599966071,9.809853800035022 C-6.279371599966071,9.809853800035022 -6.213698999969714,9.81395120003518 -6.294689799964934,9.754607000037943 C-6.375680599960154,9.695262800040705 -6.450416599955822,9.649800800042794 -6.472909199954499,9.62983820004373 C-6.495401799953175,9.609875600044667 -6.595532999947358,9.545269800047706 -6.644145599944488,9.510696800049292 C-6.6927581999416175,9.476123800050878 -6.806761399934873,9.380851000055426 -6.844589199932837,9.388280200054792 C-6.882416999930802,9.395709400054159 -6.948462199927384,9.429168000051986 -6.962800799926757,9.456016200050462 C-6.977139399926131,9.482864400048937 -7.057456399922689,9.643131400039692 -7.041326199923979,9.717699800035716 C-7.025195999925273,9.792268200031739 -7.018578799925752,9.812224000030634 -6.9758551999281195,9.817224000030635 C-6.933131599930485,9.822224000030634 -6.772387799939173,9.806839000032374 -6.692108199943552,9.806312400032848 C-6.594322399948912,9.80560800003342 -6.463513999955983,9.797565000034616 -6.430766599957755,9.799206000034733 C-6.40636459995907,9.80020940003482 -6.298149599965065,9.812753000034773 -6.279371599966071,9.809853800035022z"></path></g></g><g transform="matrix(1,0,0,1,205.482,219.484)" opacity="1" style="user-select: none; display: none;"><g opacity="1" transform="matrix(1,0,0,1,45.716,19.042)"><path fill="rgb(269,781,232)" fill-opacity="1" d="M0 0 M32.24216499600435,-10.522163627697065 C32.24216499600435,-10.522163627697065 38.25158249800217,-33.46396900559391 38.262582498002175,-36.81396900559391 C38.280582498002175,-42.31396900559391 29.511090246603697,-35.746387875899025 24.511090246603697,-35.746387875899025 C22.109090246603696,-35.746387875899025 15.773514357358152,-33.4827743847243 -3.3541791249001087,-37.26295487669815 C-20.90008614414893,-40.67217570598221 -22.786662216411095,-47.913222970786215 -33.963702370704674,-51.27177438349076 C-37.17860984564474,-52.050397765385924 -44.67222424820196,-51.45269963409011 -44.63422424820196,-46.70269963409011 C-44.60722424820196,-43.3526996340901 -42.687553327594614,-26.68949607871154 -36.40503099440609,-13.063193253795868 C-30.12329594471796,0.5631095711198046 -7.102403373102066,0.7030888782964118 1.897596626897934,0.7030888782964118 C10.897596626897933,0.7030888782964118 25.462034093353278,-3.7173286237014134 32.24216499600435,-10.522163627697065z" style="display: none;"></path></g></g><g style="user-select: none; display: none;" transform="matrix(1,0,0,1,205.482,219.484)" opacity="1"><g opacity="1" transform="matrix(1,0,0,1,45.716,19.042)"><path style="display: none;" fill="rgb(253,236,206)" fill-opacity="1" d="M0 0 M51.48946197813811,-10.33699570902766 C51.48946197813811,-10.33699570902766 54.55748348250938,-18.451548094642398 54.562773277148494,-21.796928280254942 C54.577760354721896,-27.29255954273637 45.692691501126134,-27.84873744203076 40.692691501126134,-27.84873744203076 C38.29069150112613,-27.84873744203076 32.69880772044957,-31.84612480126813 13.190405997459361,-29.913678611705915 C-0.8397475478176482,-28.52427115641712 -5.327274055572794,-32.286268273764634 -7.0602496685490275,-32.28639022538666 C-10.395667180115133,-32.28664847588037 -21.46631426417884,-35.14424961903945 -26.81059400254064,-31.163449055711506 C-29.49365854866087,-29.16334145133913 -32.17913774019792,-11.832285503666768 -32.17913774019792,-11.832285503666768 C-32.17913774019792,-11.832285503666768 -7.451163568547932,-5.281853677857397 2.9023113155135833,-4.797616948238164 C15.457051656700019,-4.209605467137805 40.30110329689685,-14.015246736386963 51.48946197813811,-10.33699570902766z"></path></g></g><g transform="matrix(1,0,0,1,206.749,248.08299999999997)" opacity="1" style="user-select: none;"><g opacity="1" transform="matrix(1,0,0,1,40.939,28.271)"><path fill="rgb(254,166,32)" fill-opacity="1" d="M0 0 M-43.93902566374959,-51.02075221249865 C-43.93902566374959,-51.02075221249865 -26.669894092390596,-36.813798021096765 -6.792602776543239,-43.25454985250009 C9.482864782295072,-48.33387733815869 31.192324778750134,-39.32387463125023 41.72697433625041,-40.15989734500163 C41.72697433625041,-40.15989734500163 38.835,35 38.501,38.334 C38.166999999999994,41.667 39.501,47.334 34.501,47.334 C34.501,47.334 -31.833,47.334 -31.833,47.334 C-35.166,47.334 -36.5,46.001000000000005 -36.833,42.667 C-37.166,39.334 -42.93620662420974,-38.84738037046051 -43.93902566374959,-51.02075221249865z"></path></g></g><g style="user-select: none; display: block;" transform="matrix(1,0,0,1,205.482,219.484)" opacity="1"><g opacity="1" transform="matrix(1,0,0,1,45.716,19.042)"><path style="display: block;" fill="rgb(253,236,206)" fill-opacity="1" d="M0 0 M37.99412435023344,-1.8338651688270762 C37.99412435023344,-1.8338651688270762 36.42089968866016,-20.1632688585041 34.87242554007229,-22.996488510383738 C31.775521610972145,-28.387661451838717 28.105140113979942,-31.950455392501286 23.105140113979942,-31.950455392501286 C20.70314011397994,-31.950455392501286 15.088733945397163,-31.905124350233447 -4.5152660546028365,-31.796124350233445 C-23.541266054602836,-31.690124350233443 -40.36443008821374,-35.89159022367421 -42.09643008821374,-35.89159022367421 C-45.429430088213735,-35.89159022367421 -47.88443008821373,-34.89159022367421 -47.84643008821374,-30.14159022367421 C-47.819430088213736,-26.79159022367421 -46.5510040692952,-10.995152818005849 -46.5510040692952,-10.995152818005849 C-46.5510040692952,-10.995152818005849 -29.964889909593825,2.134536657347121 -7.093944706726772,-5.523859714875281 C2.4694913142850012,-7.705782707763473 28.460474763990803,-2.805534126559233 37.99412435023344,-1.8338651688270762z"></path></g></g><g style="user-select: none; display: none;" transform="matrix(1,0,0,1,527.3639999999999,186.98)" opacity="1"><g opacity="1" transform="matrix(1,0,0,1,13.215,15.581)"><path style="display: none;" fill="rgb(253,235,206)" fill-opacity="1" d="M0 0 M-274.0652543557433,32.3945980747162 C-275.24233643443125,33.06382446076026 -300.81643012042264,34.14021044291782 -301.6139131139753,33.38884532668675 C-302.411396107528,32.637480210455664 -299.40253807926484,10.137034018382138 -298.6228748697464,9.701491584745895 C-297.84321166022795,9.265949151109638 -275.4189402169272,10.35768840918172 -274.8149213697529,10.999343142970503 C-274.2109025225786,11.6409978767593 -272.88817227705533,31.72537168867214 -274.0652543557433,32.3945980747162z"></path></g></g><g style="user-select: none; display: none;" transform="matrix(1,0,0,1,527.3639999999999,186.98)" opacity="1"><g opacity="1" transform="matrix(1,0,0,1,13.215,15.581)"><path style="display: none;" fill="rgb(253,235,206)" fill-opacity="1" d="M0 0 M-300.8538385212325,29.438074210570377 C-301.9047885597241,30.100282642309608 -321.7003951177435,29.046205041030156 -322.4386073409128,28.315973860710475 C-323.1768195640821,27.58574268039079 -320.9477739700062,5.533453062833079 -320.2513616808513,5.101577630145339 C-319.55494939169637,4.6697021974576 -299.2278296186597,5.600146810683171 -298.6666277669351,6.224643074241122 C-298.1054259152105,6.849139337799073 -299.80288848274085,28.775865778831154 -300.8538385212325,29.438074210570377z"></path></g></g><g style="user-select: none; display: none;" transform="matrix(1,0,0,1,531.502,166.506)" opacity="1"><g opacity="1" transform="matrix(1,0,0,1,0,0)"></g><g opacity="1" transform="matrix(1,0,0,1,13.215,15.581)"><path style="display: none;" fill="rgb(249,229,201)" fill-opacity="1" d="M0 0 M-260.77155904210633,49.44553712109001 C-261.5630335599294,50.0955465996652 -277.84985746532186,50.82620388902536 -278.52777259804935,50.26517277469131 C-279.20568773077684,49.70414166035725 -279.6291743927224,30.756525293834514 -279.10440836162667,30.332612056822057 C-278.5796423305309,29.9086988198096 -261.8699457810352,29.02726981220855 -261.34722971144777,29.51297640322076 C-260.8245136418604,29.99868299423298 -259.98008452428326,48.79552764251482 -260.77155904210633,49.44553712109001z"></path></g></g><g style="user-select: none; display: none;" transform="matrix(1,0,0,1,531.502,166.506)" opacity="1"><g opacity="1" transform="matrix(1,0,0,1,0,0)"></g><g opacity="1" transform="matrix(1,0,0,1,13.215,15.581)"><path style="display: none;" fill="rgb(249,229,201)" fill-opacity="1" d="M0 0 M-245.07497309087807,52.857445752169305 C-246.1775730688829,53.113692991078786 -265.5160373252373,46.704744945217186 -266.1642647141269,45.89142421332543 C-266.81249210301644,45.078103481433665 -262.30921652529645,27.388594400835725 -261.579998614982,27.22523586461925 C-260.8507807046676,27.061877328402776 -240.97736362123706,33.51559798537477 -240.49167208596907,34.191257403463126 C-240.0059805507011,34.86691682155149 -243.9723731128733,52.601198513259824 -245.07497309087807,52.857445752169305z"></path></g></g><g style="user-select: none; display: none;" transform="matrix(1,0,0,1,339,253)" opacity="1"><path style="display: none;" fill="rgb(249,35,62)" fill-opacity="1" d="M0 0 M-64.43,-42.582 C-64.72000000000001,-45.051 -63.818999999999996,-46.26 -66.639,-45.196 C-69.313,-44.187 -66.312,-43.5 -67.39,-41.877 C-68.504,-40.2 -67.408,-40.623 -65.68,-39.91 C-65.375,-39.062999999999995 -64.14,-40.113 -64.43,-42.582z"></path></g><g style="user-select: none; display: none;" transform="matrix(1,0,0,1,339,253)" opacity="1"><path style="display: none;" fill="rgb(249,35,62)" fill-opacity="1" d="M0 0 M-67.353,-42.405 C-67.547,-44.399 -66.943,-45.375 -68.833,-44.516 C-70.625,-43.701 -68.61500000000001,-43.146 -69.337,-41.835 C-70.083,-40.481 -69.349,-40.823 -68.191,-40.247 C-67.98700000000001,-39.563 -67.15899999999999,-40.411 -67.353,-42.405z"></path></g><g style="user-select: none; display: none;" transform="matrix(1,0,0,1,339,253)" opacity="1"><path style="display: none;" fill="rgb(249,35,62)" fill-opacity="1" d="M0 0 M-112.853,-44.405 C-113.047,-46.399 -112.443,-47.375 -114.333,-46.516 C-116.125,-45.701 -114.11500000000001,-45.146 -114.837,-43.835 C-115.583,-42.481 -114.849,-42.823 -113.691,-42.247 C-113.48700000000001,-41.563 -112.65899999999999,-42.411 -112.853,-44.405z"></path></g><g style="user-select: none; display: none;" transform="matrix(1,0,0,1,339,253)" opacity="0.66"><path style="display: none;" fill="rgb(172,73,58)" fill-opacity="1" d="M0 0 M-92.68741254668265,-65.62356104788331 C-92.84902588378145,-67.59567310059697 -92.22416906035012,-68.5647833184747 -94.07517383092348,-67.82267526822237 C-95.83277178957835,-67.12250497025997 -94.03180871655292,-66.41991365119205 -94.71575087244902,-65.10952295165184 C-95.42256816595781,-63.758147630555555 -94.71931440454422,-64.05476243552306 -93.56529829216592,-63.47974669011196 C-93.3205688998922,-62.80179282544374 -92.52579920958387,-63.651448995169666 -92.68741254668265,-65.62356104788331z"></path></g><g style="user-select: none; display: none;" transform="matrix(1,0,0,1,336.5,252.781)" opacity="0.66"><path style="display: none;" fill="rgb(172,73,58)" fill-opacity="1" d="M0 0 M-97.5423686928435,-62.31821732241113 C-97.72150448358475,-64.19290371445975 -97.12287026316022,-65.11254636500561 -98.89368996650265,-64.24964700966194 C-100.56977579654317,-63.42928123008649 -98.56020905824803,-63.03988718481007 -99.28047601142862,-61.809740484500026 C-100.02394309684641,-60.53802688059834 -99.37589555352424,-60.884459315820706 -98.2967491838072,-60.32788943689212 C-98.13980807051875,-59.66691896289615 -97.36323290210224,-60.44353093036251 -97.5423686928435,-62.31821732241113z"></path></g><g style="user-select: none; display: none;" transform="matrix(1,0,0,1,339,253)" opacity="0.66"><path style="display: none;" fill="rgb(172,73,58)" fill-opacity="1" d="M0 0 M-76.103,-62.685 C-76.297,-64.679 -75.693,-65.655 -77.583,-64.796 C-79.375,-63.98100000000001 -77.36500000000001,-63.426 -78.087,-62.115 C-78.833,-60.761 -78.099,-61.102000000000004 -76.941,-60.526 C-76.73700000000001,-59.842000000000006 -75.90899999999999,-60.691 -76.103,-62.685z"></path></g><g style="user-select: none; display: none;" transform="matrix(1,0,0,1,224.187,339.75)" opacity="0"><g opacity="1" transform="matrix(1,0,0,1,11.875,4.5)"><path style="display: none;" fill="rgb(255,255,255)" fill-opacity="1" d="M0 0 M-12.812,-3.188 C-12.812,-3.188 -20.75,3.375 -20.75,3.375 C-20.75,3.375 -9.125,-10.375 -9.125,-10.375 C-9.125,-10.375 -12.812,-3.188 -12.812,-3.188z"></path><g opacity="1" transform="matrix(1,0,0,1,0,0)"></g></g></g><g transform="matrix(1,0,0,1,202,188)" opacity="0.02820924999946146" style="user-select: none; display: none;"><g opacity="1" transform="matrix(1,0,0,1,18.501,82.75)"><path fill="rgb(255,255,255)" fill-opacity="1" d="M0 0 M-13.997913936841684,82.50001604663969 C-13.997913936841684,82.50001604663969 -14.333326041133468,82.75 -14.333326041133468,82.75 C-14.333326041133468,82.75 -28.999326041133468,-82.75 -28.999326041133468,-82.75 C-28.999326041133468,-82.75 -28.664913936841685,-82.99998395336031 -28.664913936841685,-82.99998395336031 C-28.664913936841685,-82.99998395336031 -13.997913936841684,82.50001604663969 -13.997913936841684,82.50001604663969z" style="display: none;"></path></g></g><g style="user-select: none; display: block;" transform="matrix(1,0,0,1,202,188)" opacity="0.1"><g opacity="1" transform="matrix(1,0,0,1,18.501,82.75)"><path style="display: block;" fill="rgb(255,255,255)" fill-opacity="1" d="M0 0 M20.807044862959735,82.6703035959539 C20.807044862959735,82.6703035959539 -1.1197185875773883,82.45445916832901 -1.1197185875773883,82.45445916832901 C-1.1197185875773883,82.45445916832901 -13.739951140155178,-82.93958083992786 -13.739951140155178,-82.93958083992786 C-13.739951140155178,-82.93958083992786 8.627689626376224,-82.74343410307574 8.627689626376224,-82.74343410307574 C8.627689626376224,-82.74343410307574 20.807044862959735,82.6703035959539 20.807044862959735,82.6703035959539z"></path></g></g><g transform="matrix(1,0,0,1,-7812,188.031)" opacity="0.1" style="user-select: none;"><g opacity="1" transform="matrix(1,0,0,1,8063.695,83.218)"><path fill="rgb(255,255,255)" fill-opacity="1" d="M0 0 M-58.958,-82.75 C-58.958,-82.75 50.792,-82.75 50.792,-82.75 C53.542,-82.75 57.208000000000006,-81.813 56.636,-76.5 C56.35,-73.844 54.366,-51.019 52.019,-23.758 C50.296,-3.747 48.378,18.654 46.792,37.223 C44.924,59.087 43.518,75.63799999999999 43.435,76.719 C43.185,79.969 42.042,82.75 38.542,82.75 C38.542,82.75 -46.708,82.75 -46.708,82.75 C-50.458,82.75 -51.458,80.75 -51.708,78.25 C-51.8,77.33 -53.515,56.928 -55.673,31.213 C-57.183,13.217000000000002 -58.908,-7.3820000000000014 -60.446,-25.724 C-62.684,-52.425 -64.52,-74.346 -64.708,-76.5 C-65.208,-82.25 -61.458,-82.75 -58.958,-82.75z"></path></g></g></g></svg>
