<?xml version="1.0" encoding="utf-8"?>
<!-- Generator: Adobe Illustrator 17.0.0, SVG Export Plug-In . SVG Version: 6.00 Build 0)  -->
<!DOCTYPE svg PUBLIC "-//W3C//DTD SVG 1.1//EN" "http://www.w3.org/Graphics/SVG/1.1/DTD/svg11.dtd">
<svg version="1.1" id="Layer_1" xmlns="http://www.w3.org/2000/svg" xmlns:xlink="http://www.w3.org/1999/xlink" x="0px" y="0px"
	 width="582.676px" height="290.681px" viewBox="0 0 582.676 290.681" enable-background="new 0 0 582.676 290.681"
	 xml:space="preserve">
<path fill="#FFFFFF" d="M579.002,136.104C573.757,130.545,448.802,0,291.333,0C133.875,0,8.909,130.545,3.669,136.104
	c-4.893,5.185-4.893,13.287,0,18.472c5.239,5.554,130.206,136.105,287.664,136.105c157.469,0,282.424-130.551,287.669-136.105
	C583.901,149.391,583.901,141.289,579.002,136.104z M32.695,145.343c21.782-20.43,79.327-69.784,153.541-97.905
	c-23.835,25.739-38.443,60.141-38.443,97.899c0,37.771,14.608,72.178,38.449,97.912C112.023,215.128,54.477,165.773,32.695,145.343z
	 M291.993,262.852c-64.79,0-117.496-52.713-117.496-117.515c0-64.796,52.706-117.508,117.496-117.508
	c64.797,0,117.509,52.712,117.509,117.508C409.508,210.139,356.79,262.852,291.993,262.852z M398.484,242.487
	c23.418-25.657,37.729-59.76,37.729-97.15c0-37.383-14.305-71.487-37.723-97.137c73.231,28.246,129.908,76.898,151.487,97.143
	C528.397,165.583,471.721,214.235,398.484,242.487z M310.179,80.362c0,7.435-6.024,13.46-13.459,13.46
	c-31.621,0-57.343,25.728-57.343,57.349c0,7.429-6.019,13.453-13.454,13.453c-7.435,0-13.459-6.024-13.459-13.453
	c0-46.462,37.794-84.262,84.256-84.262C304.155,66.909,310.179,72.927,310.179,80.362z"/>
</svg>
