<?xml version="1.0" encoding="utf-8"?>
<!-- Generator: Adobe Illustrator 17.0.0, SVG Export Plug-In . SVG Version: 6.00 Build 0)  -->
<!DOCTYPE svg PUBLIC "-//W3C//DTD SVG 1.1//EN" "http://www.w3.org/Graphics/SVG/1.1/DTD/svg11.dtd">
<svg version="1.1" id="Layer_1" xmlns="http://www.w3.org/2000/svg" xmlns:xlink="http://www.w3.org/1999/xlink" x="0px" y="0px"
	 width="595.28px" height="595.28px" viewBox="0 0 595.28 595.28" enable-background="new 0 0 595.28 595.28" xml:space="preserve">
<path fill="#00a65a" d="M533.272,0H62.009C27.805,0,0,27.83,0,62.009v471.263c0,34.179,27.805,62.008,62.009,62.008h471.263
	c34.204,0,62.008-27.829,62.008-62.008V62.009C595.28,27.83,567.476,0,533.272,0 M62.009,24.804h471.263
	c20.512,0,37.205,16.692,37.205,37.205v37.205H24.804V62.009C24.804,41.496,41.496,24.804,62.009,24.804 M533.272,570.477H62.009
	c-20.513,0-37.205-16.693-37.205-37.205V124.017h545.673v409.255C570.477,553.784,553.784,570.477,533.272,570.477 M483.665,272.837
	h-128.01l-46.506-116.228c-3.746-9.426-19.297-9.426-23.018,0l-46.506,116.228h-128.01c-5.308,0-9.996,3.373-11.707,8.383
	c-1.712,5.011-0.075,10.567,4.117,13.816l105.067,81.727L174.07,505.219c-1.365,4.986,0.496,10.294,4.712,13.32
	c4.192,3.001,9.822,3.125,14.113,0.248l104.745-69.822l104.744,69.822c2.084,1.389,4.465,2.083,6.871,2.083
	c2.555,0,5.085-0.793,7.242-2.331c4.192-3.026,6.077-8.334,4.713-13.32l-35.022-128.456l105.091-81.727
	c4.192-3.249,5.829-8.805,4.118-13.816C493.661,276.21,488.973,272.837,483.665,272.837 M364.46,362.253
	c-3.944,3.076-5.68,8.235-4.365,13.047l28.474,104.471L304.51,423.74c-2.083-1.389-4.464-2.083-6.87-2.083s-4.787,0.694-6.846,2.083
	l-84.058,56.031L235.21,375.3c1.314-4.812-0.422-9.971-4.366-13.047l-83.091-64.613h100.28c5.06,0,9.649-3.1,11.509-7.813
	l38.098-95.22l38.098,95.245c1.86,4.688,6.449,7.788,11.508,7.788h100.28L364.46,362.253z M62.008,74.41
	c-6.849,0-12.402-5.552-12.402-12.402c0-6.849,5.553-12.401,12.402-12.401S74.41,55.159,74.41,62.008
	C74.41,68.858,68.857,74.41,62.008,74.41 M111.615,74.41c-6.849,0-12.402-5.552-12.402-12.402c0-6.849,5.553-12.401,12.402-12.401
	c6.849,0,12.402,5.552,12.402,12.401C124.017,68.858,118.464,74.41,111.615,74.41 M161.222,74.41
	c-6.849,0-12.402-5.552-12.402-12.402c0-6.849,5.553-12.401,12.402-12.401c6.849,0,12.402,5.552,12.402,12.401
	C173.624,68.858,168.071,74.41,161.222,74.41"/>
</svg>
