<?xml version="1.0" encoding="utf-8"?>
<!-- Generator: Adobe Illustrator 17.0.0, SVG Export Plug-In . SVG Version: 6.00 Build 0)  -->
<!DOCTYPE svg PUBLIC "-//W3C//DTD SVG 1.1//EN" "http://www.w3.org/Graphics/SVG/1.1/DTD/svg11.dtd">
<svg version="1.1" id="Layer_1" xmlns="http://www.w3.org/2000/svg" xmlns:xlink="http://www.w3.org/1999/xlink" x="0px" y="0px"
	 width="490.1px" height="507.89px" viewBox="0 0 490.1 507.89" enable-background="new 0 0 490.1 507.89" xml:space="preserve">
<path fill="#FFFFFF" d="M490.03,30.72v142.86c0,16.94-13.78,30.72-30.72,30.72h-21.19c-5.52-9.19-11.73-17.8-18.55-25.72h21.89
	c12.6,0,22.85-10.25,22.85-22.86V48.57c0-12.6-10.25-22.85-22.85-22.85H334.3c-12.6,0-22.85,10.25-22.85,22.85v69.07
	c-8.49-1.43-17.09-2.26-25.72-2.49V30.72C285.73,13.78,299.51,0,316.45,0h142.86C476.25,0,490.03,13.78,490.03,30.72z
	 M387.08,386.16l2.69-3.48c18.87-24.41,28.84-53.5,28.84-84.14c0-75.95-61.79-137.75-137.76-137.75
	c-75.96,0-137.76,61.79-137.76,137.75s61.8,137.76,137.76,137.76c30.6,0,59.65-9.95,84.02-28.77l3.48-2.68l99.17,99.17
	c2.5,2.49,5.82,3.87,9.35,3.87c3.54,0,6.86-1.38,9.36-3.87c2.49-2.5,3.87-5.82,3.87-9.35c0-3.54-1.38-6.86-3.87-9.36L387.08,386.16z
	 M280.85,410.62c-61.79,0-112.07-50.28-112.07-112.08c0-61.79,50.28-112.06,112.07-112.06c61.81,0,112.08,50.27,112.08,112.06
	C392.93,360.34,342.66,410.62,280.85,410.62z M173.58,0H30.71C13.77,0,0,13.78,0,30.72v142.86c0,16.94,13.77,30.72,30.71,30.72
	h92.94c5.5-9.17,11.71-17.78,18.55-25.72H48.57c-12.6,0-22.86-10.25-22.86-22.86V48.57c0-12.6,10.26-22.85,22.86-22.85h107.15
	c12.6,0,22.86,10.25,22.86,22.85v97.89c8.29-5.61,16.9-10.49,25.72-14.56V30.72C204.3,13.78,190.52,0,173.58,0z M177.09,449.58
	c-3.28,8.61-11.62,14.74-21.37,14.74H48.57c-12.6,0-22.86-10.26-22.86-22.86V334.31c0-12.61,10.26-22.86,22.86-22.86h49.32
	c-0.3-4.35-0.46-8.67-0.46-12.91c0-4.21,0.15-8.5,0.46-12.81H30.71C13.77,285.73,0,299.51,0,316.45v142.87
	c0,16.93,13.77,30.71,30.71,30.71h142.87c14.81,0,27.41-10.81,30.05-25.19C194.52,460.6,185.63,455.48,177.09,449.58z"/>
</svg>
