<?xml version="1.0" encoding="utf-8"?>
<!-- Generator: Adobe Illustrator 17.0.0, SVG Export Plug-In . SVG Version: 6.00 Build 0)  -->
<!DOCTYPE svg PUBLIC "-//W3C//DTD SVG 1.1//EN" "http://www.w3.org/Graphics/SVG/1.1/DTD/svg11.dtd">
<svg version="1.1" id="Layer_1" xmlns="http://www.w3.org/2000/svg" xmlns:xlink="http://www.w3.org/1999/xlink" x="0px" y="0px"
	 width="461.859px" height="590.477px" viewBox="66.704 51.297 461.859 590.477"
	 enable-background="new 66.704 51.297 461.859 590.477" xml:space="preserve">
<path fill="#FFFFFF" d="M463.339,641.774H131.941c-35.972,0-65.237-29.26-65.237-65.225V116.534
	c0-35.972,29.265-65.237,65.237-65.237h331.397c35.965,0,65.225,29.265,65.225,65.237v460.016
	C528.563,612.514,499.304,641.774,463.339,641.774z M131.941,71.297c-24.944,0-45.237,20.293-45.237,45.237v460.016
	c0,24.937,20.293,45.225,45.237,45.225h331.397c24.937,0,45.225-20.288,45.225-45.225V116.534c0-24.944-20.288-45.237-45.225-45.237
	H131.941z M420.429,247.623H174.851c-20.736,0-37.606-15.657-37.606-34.902v-64.291c0-19.238,16.87-34.89,37.606-34.89h245.578
	c20.736,0,37.606,15.652,37.606,34.89v64.291C458.035,231.966,441.165,247.623,420.429,247.623z M174.851,133.54
	c-9.543,0-17.606,6.819-17.606,14.89v64.291c0,8.078,8.062,14.902,17.606,14.902h245.578c9.544,0,17.606-6.824,17.606-14.902
	v-64.291c0-8.071-8.062-14.89-17.606-14.89H174.851z M228.307,372.31h-92.116v-80.371h92.116V372.31z M156.191,352.31h52.116
	v-40.371h-52.116V352.31z M343.704,372.31h-92.128v-80.371h92.128V372.31z M271.576,352.31h52.128v-40.371h-52.128V352.31z
	 M459.089,372.31h-92.115v-80.371h92.115V372.31z M386.974,352.31h52.115v-40.371h-52.115V352.31z M228.307,477.922h-92.116v-80.358
	h92.116V477.922z M156.191,457.922h52.116v-40.358h-52.116V457.922z M343.704,477.922h-92.128v-80.358h92.128V477.922z
	 M271.576,457.922h52.128v-40.358h-52.128V457.922z M459.089,477.922h-92.115v-80.358h92.115V477.922z M386.974,457.922h52.115
	v-40.358h-52.115V457.922z M228.307,582.283h-92.116v-80.359h92.116V582.283z M156.191,562.283h52.116v-40.359h-52.116V562.283z
	 M343.704,582.283h-92.128v-80.359h92.128V582.283z M271.576,562.283h52.128v-40.359h-52.128V562.283z M459.089,582.283h-92.115
	v-80.359h92.115V582.283z M386.974,562.283h52.115v-40.359h-52.115V562.283z"/>
</svg>
