<?xml version="1.0" encoding="utf-8"?>
<!-- Generator: Adobe Illustrator 17.0.0, SVG Export Plug-In . SVG Version: 6.00 Build 0)  -->
<!DOCTYPE svg PUBLIC "-//W3C//DTD SVG 1.1//EN" "http://www.w3.org/Graphics/SVG/1.1/DTD/svg11.dtd">
<svg version="1.1" id="Layer_1" xmlns="http://www.w3.org/2000/svg" xmlns:xlink="http://www.w3.org/1999/xlink" x="0px" y="0px"
	 width="537.752px" height="597.609px" viewBox="58.528 47.566 537.752 597.609"
	 enable-background="new 58.528 47.566 537.752 597.609" xml:space="preserve">
<path fill="#00a65a" d="M535.752,376.498v-10.12v-19.843l-90.463-144.752l32.165-69.033L297.64,48.895l-64.766,138.899h-74.132
	L59.528,346.535v19.843V604.49H345.52c26.53,24.545,61.929,39.685,100.94,39.685c82.208,0,148.82-66.612,148.82-148.82
	C595.28,446.721,571.826,403.663,535.752,376.498z M307.244,75.265l143.859,67.088l-58.218,124.81H217.753L307.244,75.265z
	 M169.754,207.636h53.873l-27.74,59.528h-37.145v19.843h277.797v-19.843h-21.748l20.497-43.931l77.049,123.302H82.942
	L169.754,207.636z M79.371,366.378h293.076c-44.666,25.696-74.807,73.775-74.807,128.977c0,33.554,11.231,64.409,29.962,89.292
	H79.371V366.378z M446.46,624.332c-71.235,0-128.977-57.742-128.977-128.977s57.742-128.977,128.977-128.977
	s128.977,57.742,128.977,128.977S517.695,624.332,446.46,624.332z M516.604,432.215l14.029,14.029l-112.23,112.25l-56.115-56.115
	l14.029-14.049l42.086,42.106L516.604,432.215z"/>
</svg>
