<?xml version="1.0" encoding="utf-8"?>
<!-- Generator: Adobe Illustrator 17.0.0, SVG Export Plug-In . SVG Version: 6.00 Build 0)  -->
<!DOCTYPE svg PUBLIC "-//W3C//DTD SVG 1.1//EN" "http://www.w3.org/Graphics/SVG/1.1/DTD/svg11.dtd">
<svg version="1.1" id="Layer_1" xmlns="http://www.w3.org/2000/svg" xmlns:xlink="http://www.w3.org/1999/xlink" x="0px" y="0px"
	 width="601.934px" height="608.839px" viewBox="0.712 45.886 601.934 608.839"
	 enable-background="new 0.712 45.886 601.934 608.839" xml:space="preserve">
<path fill="#FFFFFF" d="M522.632,423.106L177.148,76.374c-19.661-19.661-45.742-30.488-73.439-30.488
	c-27.74,0-53.512,10.853-72.58,30.56C11.514,96.098,0.712,121.985,0.712,149.349c0,27.397,10.828,53.313,30.488,72.974
	l345.325,345.325l226.12,87.077L522.632,423.106z M563.11,613.782l-164.63-63.397l106.082-106.082L563.11,613.782z M463.839,451.084
	L171.975,158.047l26.383-26.383l291.923,292.978L463.839,451.084z M155.004,175.017l291.865,293.037l-25.195,25.195L129.809,200.212
	L155.004,175.017z M112.838,217.183L404.703,510.22l-25.832,25.832L86.42,243.601L112.838,217.183z M48.171,93.345l0.147-0.15
	c14.513-15.031,34.184-23.309,55.391-23.309c21.287,0,41.341,8.331,56.453,23.443l21.256,21.333L69.449,226.63l-21.278-21.278
	C16.767,173.948,16.767,124.749,48.171,93.345z"/>
</svg>
