<?xml version="1.0" encoding="utf-8"?>
<!-- Generator: Adobe Illustrator 17.0.0, SVG Export Plug-In . SVG Version: 6.00 Build 0)  -->
<!DOCTYPE svg PUBLIC "-//W3C//DTD SVG 1.1//EN" "http://www.w3.org/Graphics/SVG/1.1/DTD/svg11.dtd">
<svg version="1.1" id="Layer_1" xmlns="http://www.w3.org/2000/svg" xmlns:xlink="http://www.w3.org/1999/xlink" x="0px" y="0px"
	 width="426.423px" height="595.28px" viewBox="0 0 426.423 595.28" enable-background="new 0 0 426.423 595.28"
	 xml:space="preserve">
<path fill="#FFFFFF" d="M218.17,442.99c3.244,0,3.732-0.101,9.685-0.238v64.112c0,7-4.905,12.673-11.905,12.673
	c-7.001,0-11.906-5.673-11.906-12.673v-64.368C209.997,442.794,213.432,442.99,218.17,442.99z M107.686,414.214L31.383,577.255
	c-2.953,6.34-0.518,13.876,5.822,16.835c1.732,0.809,3.399,1.19,5.191,1.19c4.78,0,10.506-2.708,12.655-7.316l76.202-162.136
	c-0.208-0.089-0.417-0.155-0.619-0.244C122.717,422.238,115.091,418.405,107.686,414.214z M320.642,417.172
	c-5.727,3.042-11.572,5.864-17.585,8.405c-1.666,0.703-3.363,1.328-5.042,1.989l74.553,160.392
	c2.155,4.613,6.489,7.322,11.269,7.322c1.792,0,3.5-0.381,5.232-1.191c6.334-2.958,8.965-10.495,6.013-16.834L320.642,417.172z
	 M0,213.212C0,95.454,95.46,0.001,213.211,0.001s213.211,95.453,213.211,213.211c0,117.746-95.459,213.206-213.211,213.206
	S0,330.958,0,213.212z M29.788,212.248c0,101.298,82.113,183.423,183.424,183.423c101.305,0,183.43-82.125,183.424-183.423
	c0-101.305-82.119-183.424-183.424-183.424S29.788,110.937,29.788,212.248z M60.766,211.95c0-84.191,68.249-152.445,152.445-152.445
	s152.445,68.26,152.445,152.451c0,84.19-68.249,152.445-152.445,152.445S60.766,296.14,60.766,211.95z M91.69,212.128
	c0,67.112,54.409,121.521,121.521,121.521s121.52-54.409,121.52-121.521c0-67.111-54.408-121.52-121.52-121.52
	S91.69,145.017,91.69,212.128z M121.925,212.128c0-50.42,40.866-91.286,91.286-91.286c50.414,0,91.286,40.866,91.286,91.286
	c0,50.414-40.872,91.286-91.286,91.286C162.792,303.414,121.925,262.542,121.925,212.128z M152.677,212.128
	c0,33.431,27.103,60.534,60.534,60.534c33.431,0,60.534-27.103,60.534-60.534c0-33.431-27.103-60.534-60.534-60.534
	C179.781,151.594,152.677,178.697,152.677,212.128z M213.217,241.904c16.445,0,29.776-13.331,29.776-29.776
	s-13.331-29.776-29.776-29.776s-29.776,13.331-29.776,29.776S196.772,241.904,213.217,241.904z"/>
</svg>
