<?xml version="1.0" encoding="utf-8"?>
<!-- Generator: Adobe Illustrator 17.0.0, SVG Export Plug-In . SVG Version: 6.00 Build 0)  -->
<!DOCTYPE svg PUBLIC "-//W3C//DTD SVG 1.1//EN" "http://www.w3.org/Graphics/SVG/1.1/DTD/svg11.dtd">
<svg version="1.1" id="Layer_1" xmlns="http://www.w3.org/2000/svg" xmlns:xlink="http://www.w3.org/1999/xlink" x="0px" y="0px"
	 width="346.976px" height="355.145px" viewBox="0 0 346.976 355.145" enable-background="new 0 0 346.976 355.145"
	 xml:space="preserve">
<path fill="#FFFFFF" d="M161.583,259.377H97.292l-7.134,11.62l40.479,79.768l7.134,4.38h64.886l7.112-11.662l-41.074-79.768
	L161.583,259.377z M142.682,339.145l-32.36-63.768h46.381l32.835,63.768H142.682z M133.604,121.2h-41.67v-16h41.67V121.2z
	 M133.604,159.893h-41.67v-16h41.67V159.893z M133.604,197.991h-41.67v-16h41.67V197.991z M335.573,0L180.112,73.055H84.195
	C38.557,73.055,0,111.066,0,156.06c0,45.316,38.557,83.601,84.195,83.601h95.226l156.118,74.23l11.436-7.225V7.24L335.573,0z
	 M173.227,223.661H84.195C47.23,223.661,16,192.704,16,156.06c0-36.321,31.229-67.005,68.195-67.005h89.031V223.661z
	 M330.976,294.004l-141.749-67.398V86.45l141.749-66.611V294.004z"/>
</svg>
