<svg xmlns="http://www.w3.org/2000/svg" viewBox="0 0 339.62 334.84"><defs><style>.cls-1{fill:#d3edfb;}.cls-2{fill:#a7d1ec;}.cls-3{fill:#f4eeeb;}.cls-4{fill:#d1c4b9;}.cls-5{fill:#b7d9ef;}.cls-6{fill:#fff;}.cls-7{fill:#90ced4;}.cls-8{fill:none;}.cls-9{fill:#80c996;}</style></defs><title>Asset 2</title><g id="Layer_2" data-name="Layer 2"><g id="Layer_1-2" data-name="Layer 1"><rect class="cls-1" x="166.95" y="14.74" width="157.69" height="215.08"/><rect class="cls-2" x="14.84" y="14.74" width="152.11" height="215.26"/><rect class="cls-3" x="166.92" y="74.12" width="50.54" height="135.14"/><polygon class="cls-4" points="214.22 67.35 214.22 58.99 174.79 58.99 174.79 53.19 166.92 53.19 166.92 58.99 166.92 62.36 166.92 67.35 166.92 68.16 166.92 72.34 221.67 72.34 221.67 67.35 214.22 67.35"/><path class="cls-5" d="M167,42.44V39.21H37.52V217.72H167V214.5H150.21V194.64H167v-3.23H150.21v-19H167v-3.23H150.21v-19H167V147H150.21V128H167v-3.23H150.21v-19H167V102.6H150.21v-19H167V80.4H150.21v-19H167V58.2H150.21V42.44ZM58.17,214.5H40.75V194.64H58.17Zm0-23.08H40.75v-19H58.17Zm0-22.2H40.75v-19H58.17Zm0-22.21H40.75V128H58.17Zm0-22.2H40.75v-19H58.17Zm0-22.2H40.75v-19H58.17Zm0-22.21H40.75v-19H58.17Zm0-22.2H40.75V42.44H58.17Zm22.2,156.3h-19V194.64h19Zm0-23.08h-19v-19h19Zm0-22.2h-19v-19h19Zm0-22.21h-19V128h19Zm0-22.2h-19v-19h19Zm0-22.2h-19v-19h19Zm0-22.21h-19v-19h19Zm0-22.2h-19V42.44h19Zm22.21,156.3h-19V194.64h19Zm0-23.08h-19v-19h19Zm0-22.2h-19v-19h19Zm0-22.21h-19V128h19Zm0-22.2h-19v-19h19Zm0-22.2h-19v-19h19Zm0-22.21h-19v-19h19Zm0-22.2h-19V42.44h19Zm22.21,156.3h-19V194.64h19Zm0-23.08h-19v-19h19Zm0-22.2h-19v-19h19Zm0-22.21h-19V128h19Zm0-22.2h-19v-19h19Zm0-22.2h-19v-19h19Zm0-22.21h-19v-19h19Zm0-22.2h-19V42.44h19ZM147,214.5H128V194.64h19Zm0-23.08H128v-19h19Zm0-22.2H128v-19h19ZM147,147H128V128h19Zm0-22.2H128v-19h19Zm0-22.2H128v-19h19Zm0-22.21H128v-19h19Zm0-22.2H128V42.44h19Z"/><polygon class="cls-6" points="160.06 104.4 166.96 104.4 166.96 101.75 162.71 101.75 162.71 89.72 166.96 89.72 166.96 87.07 160.06 87.07 160.06 104.4"/><path class="cls-6" d="M132.69,130.27H150V112.94H132.69Zm10-14.68h4.7v4.69h-4.7Zm0,7.34h4.7v4.69h-4.7Zm-7.34-7.34H140v12h-4.69Z"/><polygon class="cls-6" points="160.06 130.27 166.96 130.27 166.96 127.62 162.71 127.62 162.71 115.58 166.96 115.58 166.96 112.94 160.06 112.94 160.06 130.27"/><path class="cls-6" d="M138,191.85h10.94v-8.32H138Zm2.65-5.67h5.65v3h-5.65Z"/><path class="cls-6" d="M138,207h10.94V193.21H138Zm2.65-11.19h5.65v8.54h-5.65Z"/><path class="cls-6" d="M150,87.07H132.69V104.4H150Zm-10,14.69h-4.69v-12H140Zm7.34,0h-4.7v-4.7h4.7Zm0-7.34h-4.7V89.72h4.7Z"/><path class="cls-6" d="M167,53.84V51.19h-5v6H122.28v9H113.8v8.15H119V185.63a9.78,9.78,0,1,0-5.21,18.66v4.52H92.54v2.65H167v-2.65H153.69V178.1H132.8v30.71H121.65v-6.93a9.68,9.68,0,0,0,0-14.51V74.61H167v-2.9H116.44V68.86H167V66.21h-42V59.84h42V57.2h-2.37V53.84Zm-48,155h-2.56v-4.52a9.72,9.72,0,0,0,2.56-.68Zm0-8.19a7.1,7.1,0,0,1-2.56,1v-5.32H113.8v5.32a7.15,7.15,0,1,1,5.21-13Zm16.45-19.87H151v28.06H135.45Zm-13.8,11a7,7,0,0,1,0,5.79Z"/><polygon points="179.93 148.53 184.07 148.53 184.07 145.35 172.62 145.35 172.62 148.53 176.75 148.53 176.75 151.41 175.34 151.41 175.34 154.58 186.8 154.58 186.8 151.41 179.93 151.41 179.93 148.53"/><polygon points="205.71 161.65 205.71 158.47 189.42 158.47 189.42 161.65 197.03 161.65 197.03 164.52 189.38 164.52 189.38 167.7 205.66 167.7 205.66 164.52 200.2 164.52 200.2 161.65 205.71 161.65"/><path d="M246.49,73.27a10.16,10.16,0,0,1-10.07-8.9,8.7,8.7,0,0,1-1.2.08,10.14,10.14,0,1,1,0-20.29,10,10,0,0,1,4.5,1.07,10.07,10.07,0,0,1,16.12,3.67A10.13,10.13,0,1,1,255,68.54,10,10,0,0,1,246.49,73.27Z"/><path class="cls-6" d="M239.11,60.94,239,63.1a7.47,7.47,0,0,0,14.23,3.25l.55-1.15,1.17.5a7.43,7.43,0,0,0,3,.61,7.5,7.5,0,0,0,0-15,7.37,7.37,0,0,0-2.47.46l-1.36.48-.36-1.39a7.49,7.49,0,0,0-7.22-5.61,7.4,7.4,0,0,0-5.56,2.51l-.75.84-.95-.61a7.49,7.49,0,1,0-4,13.81,7.37,7.37,0,0,0,2.11-.35Z"/><path d="M275.1,112.19a10,10,0,0,1-6.62-2.49,10,10,0,0,1-4.35,1,10.14,10.14,0,1,1,0-20.29,10,10,0,0,1,2.85.41,10.05,10.05,0,0,1,16.37.18,9.85,9.85,0,0,1,3.34-.59,10.14,10.14,0,1,1-4.78,19.09A10.09,10.09,0,0,1,275.1,112.19Z"/><path class="cls-6" d="M268.93,106.39l.74.78a7.61,7.61,0,0,0,11-.21l.78-.88,1,.67a7.52,7.52,0,1,0,1-12.88l-1.14.56-.61-1.12a7.42,7.42,0,0,0-13-.21l-.58,1L267,93.65a7.43,7.43,0,0,0-2.87-.58,7.5,7.5,0,1,0,0,15,7.37,7.37,0,0,0,3.88-1.12Z"/><path d="M337,2.65V332.19H2.65V2.65H337M339.62,0H0V334.84H339.62V0Z"/><path d="M20.61,250.19H39v6.21H27.7v19.37H20.61Z"/><path d="M42.41,250.19h11c6.47,0,10.64,3.33,10.64,9.07,0,6-4.64,9.21-11,9.21H49.5v7.31H42.41Zm10.46,12.72c2.52,0,4.06-1.32,4.06-3.4s-1.54-3.36-4.09-3.36H49.5v6.76Z"/><path d="M66.51,263c0-7.35,5.92-13.31,13.82-13.31S94.07,255.56,94.07,263s-5.92,13.3-13.82,13.3S66.51,270.4,66.51,263Zm20.32,0a6.65,6.65,0,0,0-6.58-6.91c-3.87,0-6.47,3.15-6.47,6.91a6.64,6.64,0,0,0,6.54,6.91C84.24,269.89,86.83,266.75,86.83,263Z"/><path d="M98.14,250.19h7.49l6.1,9.9,6.1-9.9h7.49v25.59h-7.06V261.08l-6.54,10h-.15l-6.51-9.94v14.62H98.14Z"/><path d="M139.1,250h6.83l10.89,25.77h-7.6l-1.86-4.57h-9.87l-1.83,4.57h-7.46Zm6.21,15.68-2.85-7.27-2.89,7.27Z"/><path d="M157.79,269.56h2.26c1.72-4.64,2.6-9.1,2.6-18.71v-.66h19.48v19.37H185l-.8,11.33h-6v-5.12h-13.6l-.47,5.12h-6.36Zm17.25,0V256.4h-5.56v.26a38,38,0,0,1-2,12.9Z"/><path d="M187.34,263a13.14,13.14,0,0,1,13.49-13.31,12.37,12.37,0,0,1,10.75,5.41l-5.19,4a6.88,6.88,0,0,0-5.63-3c-3.58,0-6.1,3-6.1,6.84s2.52,6.83,6.1,6.83c2.67,0,4.24-1.24,5.77-3.11l5.34,3.8A13.47,13.47,0,0,1,187.34,263Z"/><path d="M215.28,250.19h7.09v8h3.88c6.14,0,10.64,2.93,10.64,8.7,0,5.52-4,8.85-10.27,8.85H215.28Zm10.78,19.63c2.34,0,3.73-1.06,3.73-3.07,0-1.79-1.39-3-3.69-3h-3.73v6Z"/><path d="M240.26,250.19h7.09v10.38l8.81-10.38h8.4l-9.68,11,10,14.58h-8.52l-6.43-9.5-2.6,2.89v6.62h-7.09Z"/><path d="M267.32,250.19h7v14.4l9.91-14.4h6.62v25.59h-7v-14.4l-9.91,14.4h-6.62Z"/><path d="M295.78,250.19h7v14.4l9.91-14.4h6.62v25.59h-7v-14.4l-9.91,14.4h-6.62Zm5.56-7.24,3.88-.69c.48,1.32,1.21,2.19,2.56,2.19s2.12-.88,2.6-2.19l3.87.69a6.52,6.52,0,0,1-12.9,0Z"/><path d="M94.21,294.08H114v25.59h-1.9V295.83h-16v23.83h-1.9Z"/><path d="M122,294.08h9.29c5.63,0,9.5,2.89,9.5,7.9,0,5.37-4.64,8.15-10,8.15h-6.91v9.54H122Zm8.92,14.29c4.75,0,8-2.49,8-6.36,0-4.06-3.14-6.18-7.75-6.18h-7.24v12.54Z"/><path d="M145.67,306.87c0-7,5.15-13.23,12.9-13.23s12.83,6.18,12.83,13.23-5.16,13.23-12.91,13.23S145.67,313.93,145.67,306.87Zm23.76,0c0-6.32-4.6-11.52-10.93-11.52s-10.85,5.12-10.85,11.52,4.6,11.51,10.93,11.51S169.43,313.27,169.43,306.87Z"/><path d="M178.26,294.08h18.2v1.76h-16.3v10.05h14.66v1.75H180.16v10.27h16.49v1.76H178.26Z"/><path d="M203.12,294.08H205v16.81l16.3-16.81h2.6l-11.18,11.29,11.66,14.29h-2.49l-10.53-12.94L205,313.16v6.51h-1.9Z"/><path d="M236.73,295.83h-8.92v-1.76h19.74v1.76h-8.92v23.83h-1.9Z"/><rect x="188.78" y="87.02" width="17.33" height="17.33"/><rect class="cls-7" x="198.77" y="89.66" width="4.7" height="4.69"/><rect class="cls-7" x="191.43" y="89.66" width="4.69" height="12.04"/><rect class="cls-7" x="198.77" y="97.01" width="4.7" height="4.69"/><polygon points="166.93 87.02 166.93 89.66 168.75 89.66 168.75 101.7 166.93 101.7 166.93 104.35 178.75 104.35 178.75 87.02 166.93 87.02"/><rect class="cls-7" x="171.4" y="89.66" width="4.7" height="4.69"/><rect class="cls-7" x="171.4" y="97.01" width="4.7" height="4.69"/><rect class="cls-7" x="166.93" y="89.66" width="1.82" height="12.04"/><rect x="188.78" y="112.94" width="17.33" height="17.33"/><rect class="cls-7" x="198.77" y="115.58" width="4.7" height="4.69"/><rect class="cls-7" x="191.43" y="115.58" width="4.69" height="12.04"/><rect class="cls-7" x="198.77" y="122.93" width="4.7" height="4.69"/><polygon points="166.93 112.94 166.93 115.58 168.75 115.58 168.75 127.62 166.93 127.62 166.93 130.27 178.75 130.27 178.75 112.94 166.93 112.94"/><rect class="cls-7" x="171.4" y="115.58" width="4.7" height="4.69"/><rect class="cls-7" x="171.4" y="122.93" width="4.7" height="4.69"/><rect class="cls-7" x="166.93" y="115.58" width="1.82" height="12.04"/><line class="cls-8" x1="166.55" y1="43.25" x2="166.55" y2="224.41"/><polygon points="174.38 53.84 174.38 57.2 166.94 57.2 166.94 59.84 177.03 59.84 213.25 59.84 213.25 66.21 166.94 66.21 166.94 68.86 215.9 68.86 220.66 68.86 220.66 71.72 166.94 71.72 166.94 74.61 217.32 74.61 217.32 208.81 166.94 208.81 166.94 211.46 219.97 211.46 245.43 211.46 245.43 208.81 219.97 208.81 219.97 74.36 223.31 74.36 223.31 66.21 215.9 66.21 215.9 57.2 206.28 57.2 206.28 46.45 208.66 46.45 208.66 43.8 206.28 43.8 206.28 42.03 210.51 42.03 210.51 39.38 206.28 39.38 206.28 37.53 212.07 37.53 212.07 34.88 206.28 34.88 206.28 31.74 203.64 31.74 203.64 34.88 197.85 34.88 197.85 37.53 203.64 37.53 203.64 39.38 199.41 39.38 199.41 42.03 203.64 42.03 203.64 43.8 201.26 43.8 201.26 46.45 203.64 46.45 203.64 57.2 177.03 57.2 177.03 51.19 171.66 51.19 171.66 42 169.01 42 169.01 51.19 166.94 51.19 166.94 53.84 174.38 53.84"/><rect class="cls-8" x="166.93" y="115.58" width="9.16" height="12.04"/><rect class="cls-8" x="166.93" y="89.72" width="9.16" height="12.04"/><path d="M215.72,194.62a9.8,9.8,0,1,0-11.12,9.67v5.59h2.65v-5.59A9.78,9.78,0,0,0,215.72,194.62Z"/><path class="cls-9" d="M207.25,201.64v-5.32H204.6v5.32a7.15,7.15,0,1,1,2.65,0Z"/><path d="M247,181.72a17,17,0,1,0-18.3,16.91v11.26h2.65V198.62A17,17,0,0,0,247,181.72Z"/><path class="cls-9" d="M231.38,195.91V184.85h-2.65v11.06a14.33,14.33,0,1,1,2.65,0Z"/></g></g></svg>